<svg width="21" height="17" viewBox="0 0 21 17" fill="none" xmlns="http://www.w3.org/2000/svg">
<path d="M19.6874 16.2505H1.31251C0.587603 16.2505 0 15.6629 0 14.938C0 14.2131 0.587603 13.6255 1.31251 13.6255H19.6875C20.4124 13.6255 21 14.2131 21 14.938C21 15.6629 20.4123 16.2505 19.6874 16.2505Z" fill="black"/>
<path d="M19.6874 9.68747H1.31251C0.587603 9.68747 0 9.09986 0 8.37501C0 7.65015 0.587603 7.0625 1.31251 7.0625H19.6875C20.4124 7.0625 21 7.6501 21 8.37501C21 9.09991 20.4123 9.68747 19.6874 9.68747Z" fill="black"/>
<path d="M19.6874 3.12501H1.31251C0.587603 3.12501 0 2.53741 0 1.81251C0 1.0876 0.587603 0.5 1.31251 0.5H19.6875C20.4124 0.5 21 1.0876 21 1.81251C21 2.53741 20.4123 3.12501 19.6874 3.12501Z" fill="black"/>
</svg>
